<?xml version="1.0" encoding="utf-8"?>
<!-- Generator: Adobe Illustrator 16.0.0, SVG Export Plug-In . SVG Version: 6.00 Build 0)  -->
<!DOCTYPE svg PUBLIC "-//W3C//DTD SVG 1.1//EN" "http://www.w3.org/Graphics/SVG/1.1/DTD/svg11.dtd">
<svg version="1.1" id="Layer_1" xmlns="http://www.w3.org/2000/svg" xmlns:xlink="http://www.w3.org/1999/xlink" x="0px" y="0px"
	 width="360px" height="164.338px" viewBox="0 0 360 164.338" enable-background="new 0 0 360 164.338" xml:space="preserve">
<g>
	<path fill="#FFFFFF" d="M33.059,128.062c0.001-0.005,0.001-0.01,0.002-0.015c-0.053-0.024-0.107-0.047-0.16-0.071
		C32.961,127.998,33.001,128.039,33.059,128.062"/>
	<path fill="#FFFFFF" d="M71.141,67.138c-2.805-0.99-5.562-0.2-8.098,1.098c-1.111,0.452-1.339,0.532-2.296,0.765
		c-3.496,0.705-7.026,1.125-10.602,1.008c-2.425-0.079-5.39-1.078-7.752-0.371c-2.391,0.716-3.581,2.867-3.605,5.242
		c-0.079,7.992,12.604,11.533,18.752,11.325c6.341-0.214,18.136-4.723,18.621-12.451C76.359,70.607,73.927,68.122,71.141,67.138
		 M65.013,71.666c3.025-2.188,7.989-1.893,6.798,3.783c-1.018,1.813-3.404,3.561-9.895,6.176c-4.75,1.915-10.388,0.685-14.787-1.931
		c-1.226-0.664-2.334-1.498-3.323-2.504c-1.989-2.616-0.983-3.736,0.168-3.867c0.677-0.081,5.76,0.558,6.171,0.573
		c2.985,0.104,5.913-0.16,8.826-0.629C61.159,73.042,64.037,72.314,65.013,71.666"/>
	<path fill="#FFFFFF" d="M43.392,15.127c0,0-0.007,0.124-0.016,0.295c0.009-0.104,0.02-0.204,0.029-0.306L43.392,15.127z"/>
	<path fill="#FFFFFF" d="M44.114,30.711c-0.385,0.144-0.755,0.327-1.129,0.502C43.347,31.04,43.708,30.864,44.114,30.711"/>
	<path fill="#FFFFFF" d="M31.313,63.927c0,0-1.646,2.969-1.183,6.314h-0.873l-0.81-6.314H31.313z"/>
	<path fill="#FFFFFF" d="M53.447,46.75c0.195-1.027-0.276-2.099-1.357-2.391c-3.992-1.076-7.07,2.092-7.691,5.833
		c-0.553,3.326-0.609,8.658,3.014,10.306c3.72,1.692,5.92-1.983,6.147-5.2c0.157-2.236-0.217-4.418-1.369-6.094
		C52.856,48.487,53.256,47.76,53.447,46.75"/>
	<path fill="#FFFFFF" d="M68.293,46.64c0.531-1.215,0.012-2.841-1.63-2.643c-0.798,0.096-1.516,0.326-2.173,0.643
		c-1.332,0.017-2.209,0.98-2.78,2.399c-1.575,2.225-2.187,5.296-1.871,8.022c0.133,1.145,0.518,2.251,1.127,3.194
		c0.177,0.602,0.561,1.02,1.049,1.23c0.583,0.522,1.267,0.94,2.074,1.182c2.248,0.674,4.544-0.261,5.633-2.339
		C71.398,55.126,70.877,49.616,68.293,46.64"/>
	<path fill="#FFFFFF" d="M136.95,30.004c0.073-0.259,0.153-0.514,0.204-0.785c0.189-1.006-0.268-2.127-1.357-2.39
		c-3.34-0.808-6.229,0.428-8.759,2.337c-0.553-3.094-1.52-6.171-2.988-9.189c-1.095-2.248-4.448-0.28-3.357,1.962
		c1.476,3.031,2.338,6.124,2.752,9.224c-2.154,0.531-3.524,2.939-2.789,5.105c0.502,1.477,1.421,2.882,2.717,3.734
		c-0.932,6.472-3.673,12.762-7.577,18.37c-4.904,7.045-8.429,10.258-17.826,9.576c-3.736-0.271-7.309-0.461-10.978-0.328
		c0.305-2.001,0.607-3.976,0.959-5.883c1.342-7.264,3.088-15.14,2.197-22.592c7.514-2.691,13.815-7.839,18.163-14.776
		c0.969-1.547-0.625-3.146-2.195-2.855c-0.969,0.18-1.939,0.36-2.908,0.54c4.16-4.942,6.171-11.005,5.754-18.018
		c-0.115-1.921-2.559-2.648-3.622-0.981C91.984,24,67.481,1.281,50.096,2.495c-7.377,0.516-14.275,7.11-11.867,14.058
		c-7.032,0.454-12.481,5.702-15.248,12.571c-4.039,10.026-1.329,20.551,2.259,30.319c-0.148,5.243,0.51,10.473,2.086,15.541
		C20.303,81.448,12.973,87.477,5.245,93.09c-0.924,0.671-1.435,2.171-0.393,3.053c9.26,7.831,18.52,15.663,27.78,23.495
		c-0.806,0.509-1.611,1.017-2.417,1.525c-1.04,0.656-1.316,2.153-0.393,3.052c0.149,0.145,0.297,0.289,0.445,0.434
		c-0.855,0.853-1.148,1.967-0.899,3.77c0.065,0.473,0.425,0.847,0.833,1.1c-0.105,1.082,0.154,1.693,1.049,3.263
		c0.489,0.855,1.304,1.056,2.04,0.867c-0.784,3.976-3.624,16.4-5.173,21.277c-6.628-0.316-13.257-0.442-19.894-0.334
		c-2.498,0.041-2.506,3.928,0,3.887c7.131-0.117,14.253,0.012,21.376,0.387c1.042,0.055,1.622-0.597,1.794-1.375
		c2.372-6.599,4.982-23.066,7.001-29.743c2.986-9.871,6.1-19.706,9.157-29.555c4.129,1.811,8.541,2.765,12.927,2.6
		c1.371,2.814,1.734,5.241,2.961,8.259c1.607,3.957,2.45,8.345,3.582,12.449c2.502,9.075,7.548,28.237,10.05,37.311l0.004,0.001
		c0.082,0.894,0.678,1.709,1.84,1.659c7.278-0.312,14.516-0.069,21.757,0.728c2.482,0.272,2.463-3.616,0-3.888
		c-6.634-0.729-13.267-0.971-19.929-0.771c-2.85-10.322-7.517-27.163-9.974-36.073c-1.137-4.123-2.024-8.456-3.583-12.449
		c-1.063-2.725-1.355-5.135-2.697-7.707c4.385-0.88,8.641-2.964,12.44-6.537c6.142-5.777,8.102-14.037,9.448-22.243
		c4.659-0.274,9.22-0.126,13.89,0.72c2.178,0.395,4.923,1.572,7.153,0.923c4.947-1.439,9.943-10.011,12.59-14.086
		c3.325-5.119,5.704-10.659,6.84-16.348c2.677-0.415,5.159-1.229,7.534-2.623c0.949-0.557,1.111-1.487,0.795-2.268
		c1.567-1.417,2.749-3.255,3.397-5.385C138.907,31.376,138.038,30.149,136.95,30.004 M25.487,46.978l0.008-0.032
		c-0.407-2.101-0.671-4.222-0.679-6.369c-0.031-8.447,4.753-21.354,15.419-20.147c4.804,1.886,3.157-1.498,3.157-1.498
		c-0.057-0.326-0.075-0.854-0.076-1.414c-0.015,0-0.028-0.006-0.042-0.005c0.004-0.783,0.045-1.51,0.102-2.213
		c0.009-0.17,0.016-0.295,0.016-0.295l0.014-0.011c0.732-7.757,4.808-10.478,12.257-8.117c1.539,0.33,3.053,0.744,4.544,1.242
		c3.15,0.955,6.217,2.151,9.318,3.249c5.579,1.976,11.358,3.963,17.337,4.17c6.807,0.235,13.16-1.64,17.942-5.946
		c-0.908,5.56-3.797,10.299-8.714,13.893c-1.781,1.302-0.734,3.967,1.497,3.552l4.604-0.854c-2.871,3.412-6.383,6.164-10.336,8.09
		v0.01c-4.322,2.556-9.474,2.833-9.474,2.833l-0.014-0.014c-0.419,0.054-0.834,0.119-1.258,0.155
		c-8.424,0.711-14.813-3.203-22.423-6.051c-5.21-1.95-10.226-2.249-14.572-0.616c-0.406,0.153-0.767,0.328-1.129,0.502
		c-0.271,0.127-0.543,0.252-0.808,0.396c-4.008,2.274-4.923,5.628-4.923,5.628c-0.376,2.642-1.628,6.026-1.628,6.026l-0.037,0.02
		c-1.57,5.589-3.623,10.967-6.274,16.208c-0.042-0.108-0.084-0.216-0.125-0.325C25.923,50.536,25.487,46.978,25.487,46.978
		 M33.059,126.5c-0.057-0.025-0.098-0.066-0.158-0.086c0.053,0.024,0.107,0.047,0.16,0.071C33.06,126.49,33.06,126.495,33.059,126.5
		 M43.816,97.121c-2.202,7.104-4.406,14.21-6.606,21.317c-9.293-7.861-18.586-15.722-27.88-23.582
		c6.742-5.002,13.209-10.302,19.428-15.945c0.248,0.593,0.459,1.193,0.735,1.78c3.055,6.486,8.25,12.01,14.377,15.62
		c-0.015,0.102-0.06,0.181-0.06,0.293v0.486C43.81,97.102,43.816,97.109,43.816,97.121 M86.257,48.777
		c-0.51,5.287-1.218,12.117-2.484,18.989c-0.294,1.461-0.382,2.05-0.712,3.802c-2.159,9.514-5.841,18.452-13.024,22.449
		c-2.654,1.477-5.311,2.366-7.925,2.778c-0.6,0.105-1.091,0.174-1.759,0.206c-14.47,1.084-27.251-12.572-30.222-26.76
		c-0.303-1.445-0.508-2.897-0.671-4.351c0.493-0.076,0.957-0.353,1.269-0.908c4.979-8.857,8.376-18.026,10.341-27.958
		c7.596-8.005,17.644-0.649,26.744,2.434c5.131,1.739,10.507,2.194,15.874,1.364c0.839-0.129,1.648-0.334,2.464-0.52
		C86.512,42.951,86.546,45.781,86.257,48.777"/>
</g>
<g>
	<path fill="#FFFFFF" d="M156.394,78.058v8.424c0,0.398,0.322,0.72,0.72,0.72h8.964c0.398,0,0.72-0.322,0.72-0.72v-8.424
		c0-0.398,0.323-0.72,0.72-0.72h4.213c0.397,0,0.72,0.322,0.72,0.72v24.264c0,0.398-0.323,0.721-0.72,0.721h-4.213
		c-0.397,0-0.72-0.322-0.72-0.721v-9.647c0-0.397-0.322-0.72-0.72-0.72h-8.964c-0.398,0-0.72,0.323-0.72,0.72v9.647
		c0,0.398-0.322,0.721-0.72,0.721h-4.211c-0.398,0-0.72-0.322-0.72-0.721V78.058c0-0.398,0.322-0.72,0.72-0.72h4.211
		C156.071,77.337,156.394,77.66,156.394,78.058"/>
	<path fill="#FFFFFF" d="M180.874,98.578c0.767,0.744,1.872,1.115,3.311,1.115c1.032,0,1.92-0.258,2.664-0.773
		c0.594-0.412,1.005-0.843,1.232-1.293c0.113-0.224,0.363-0.345,0.614-0.345h2.987c0.519,0,0.863,0.534,0.665,1.012
		c-0.709,1.709-1.689,2.968-2.941,3.775c-1.488,0.961-3.289,1.44-5.4,1.44c-1.464,0-2.785-0.234-3.96-0.703
		c-1.176-0.467-2.172-1.133-2.989-1.998c-0.815-0.863-1.445-1.895-1.889-3.095c-0.445-1.2-0.666-2.521-0.666-3.96
		c0-1.392,0.227-2.688,0.683-3.888c0.456-1.2,1.105-2.238,1.945-3.114c0.839-0.876,1.841-1.567,3.005-2.07
		c1.164-0.504,2.455-0.756,3.871-0.756c1.584,0,2.963,0.305,4.14,0.918c1.175,0.612,2.142,1.434,2.898,2.465
		c0.755,1.033,1.301,2.209,1.637,3.529c0.282,1.106,0.412,2.255,0.39,3.445c-0.007,0.387-0.336,0.694-0.723,0.694H180.4
		c-0.441,0-0.773,0.396-0.716,0.833C179.844,97.042,180.24,97.965,180.874,98.578 M186.652,88.786
		c-0.612-0.672-1.543-1.009-2.79-1.009c-0.816,0-1.494,0.139-2.034,0.414c-0.54,0.277-0.972,0.618-1.296,1.027
		c-0.324,0.408-0.553,0.84-0.685,1.296c-0.132,0.456-0.21,0.864-0.233,1.223h7.401c0.48,0,0.831-0.468,0.695-0.928
		C187.46,89.961,187.108,89.287,186.652,88.786"/>
	<path fill="#FFFFFF" d="M201.466,108.586c-0.984,0.646-2.354,0.972-4.104,0.972c-0.528,0-1.05-0.018-1.565-0.054
		c-0.298-0.021-0.599-0.044-0.9-0.068c-0.374-0.031-0.666-0.347-0.666-0.722v-3.548c0.479,0.048,0.971,0.096,1.476,0.144
		c0.505,0.047,1.009,0.06,1.513,0.036c0.671-0.073,1.17-0.336,1.494-0.792c0.322-0.456,0.484-0.96,0.484-1.512
		c0-0.408-0.07-0.792-0.215-1.152l-6.153-16.489c-0.176-0.47,0.172-0.971,0.674-0.971h3.878c0.311,0,0.586,0.199,0.684,0.494
		l4.048,12.25h0.073l3.908-12.243c0.095-0.299,0.373-0.501,0.686-0.501h3.73c0.502,0,0.85,0.5,0.675,0.971l-7.415,19.945
		C203.217,106.856,202.448,107.938,201.466,108.586"/>
	<path fill="#FFFFFF" d="M228.31,77.337c0.308,0,0.582,0.196,0.682,0.488l5.845,17.188h0.073l5.526-17.177
		c0.096-0.297,0.373-0.499,0.686-0.499h6.711c0.398,0,0.721,0.322,0.721,0.72v24.264c0,0.398-0.322,0.721-0.721,0.721h-3.852
		c-0.397,0-0.72-0.322-0.72-0.721V84.826h-0.072l-6.132,17.731c-0.102,0.291-0.374,0.485-0.682,0.485h-3.331
		c-0.306,0-0.579-0.193-0.68-0.482l-6.132-17.554h-0.071v17.315c0,0.398-0.323,0.721-0.72,0.721h-3.853
		c-0.397,0-0.72-0.322-0.72-0.721V78.058c0-0.398,0.322-0.72,0.72-0.72H228.31z"/>
	<path fill="#FFFFFF" d="M251.649,80.83v-2.772c0-0.397,0.322-0.72,0.72-0.72h3.672c0.398,0,0.721,0.323,0.721,0.72v2.772
		c0,0.398-0.322,0.72-0.721,0.72h-3.672C251.972,81.549,251.649,81.228,251.649,80.83 M256.762,85.149v17.172
		c0,0.398-0.322,0.72-0.721,0.72h-3.672c-0.397,0-0.72-0.321-0.72-0.72V85.149c0-0.398,0.322-0.72,0.72-0.72h3.672
		C256.439,84.43,256.762,84.751,256.762,85.149"/>
	<path fill="#FFFFFF" d="M263.619,98.416c0.228,0.396,0.521,0.72,0.882,0.972c0.36,0.252,0.773,0.438,1.242,0.558
		c0.468,0.12,0.954,0.181,1.458,0.181c0.359,0,0.737-0.042,1.134-0.126c0.396-0.084,0.756-0.216,1.08-0.397
		c0.324-0.179,0.594-0.418,0.809-0.719c0.217-0.3,0.325-0.678,0.325-1.134c0-0.768-0.51-1.344-1.53-1.729
		c-1.02-0.383-2.441-0.767-4.266-1.151c-0.744-0.168-1.471-0.366-2.178-0.595c-0.708-0.227-1.338-0.527-1.892-0.899
		c-0.551-0.372-0.996-0.84-1.331-1.404c-0.337-0.564-0.505-1.254-0.505-2.071c0-1.199,0.235-2.183,0.703-2.951
		s1.086-1.374,1.854-1.818c0.768-0.445,1.632-0.756,2.592-0.937c0.96-0.179,1.943-0.269,2.952-0.269
		c1.008,0,1.984,0.095,2.934,0.288c0.948,0.192,1.794,0.516,2.538,0.972c0.744,0.456,1.362,1.062,1.854,1.818
		c0.362,0.556,0.616,1.22,0.765,1.99c0.086,0.449-0.253,0.872-0.71,0.872h-3.416c-0.326,0-0.622-0.218-0.692-0.536
		c-0.151-0.694-0.499-1.182-1.04-1.462c-0.672-0.348-1.464-0.522-2.376-0.522c-0.289,0-0.6,0.017-0.936,0.053
		c-0.337,0.037-0.644,0.115-0.918,0.235c-0.276,0.12-0.512,0.294-0.702,0.521c-0.193,0.229-0.288,0.535-0.288,0.919
		c0,0.456,0.168,0.827,0.504,1.115c0.336,0.289,0.774,0.523,1.314,0.703c0.54,0.179,1.156,0.341,1.854,0.486
		c0.696,0.143,1.404,0.3,2.124,0.468c0.744,0.168,1.469,0.372,2.177,0.612c0.708,0.24,1.338,0.558,1.892,0.954
		c0.552,0.396,0.995,0.888,1.332,1.476c0.336,0.589,0.504,1.314,0.504,2.177c0,1.225-0.246,2.25-0.738,3.079
		c-0.492,0.828-1.134,1.494-1.926,1.998c-0.792,0.503-1.698,0.858-2.718,1.062c-1.021,0.203-2.059,0.306-3.114,0.306
		c-1.08,0-2.137-0.109-3.168-0.324c-1.032-0.216-1.95-0.577-2.754-1.081c-0.806-0.503-1.464-1.169-1.98-1.998
		c-0.395-0.634-0.652-1.39-0.773-2.27c-0.061-0.441,0.269-0.843,0.714-0.843h3.42c0.351,0,0.643,0.256,0.704,0.601
		C263.381,97.898,263.478,98.172,263.619,98.416"/>
	<path fill="#FFFFFF" d="M287.397,85.149v1.98c0,0.398-0.322,0.72-0.721,0.72h-2.304c-0.397,0-0.72,0.322-0.72,0.72v8.496
		c0,0.864,0.144,1.44,0.432,1.728c0.288,0.288,0.864,0.433,1.729,0.433c0.288,0,0.562-0.012,0.828-0.036
		c0.264-0.024,0.516-0.06,0.756-0.108v3.327c0,0.37-0.277,0.682-0.646,0.719c-0.252,0.026-0.517,0.046-0.795,0.059
		c-0.528,0.022-1.044,0.036-1.548,0.036c-0.792,0-1.542-0.055-2.25-0.162c-0.708-0.108-1.332-0.318-1.872-0.63
		c-0.54-0.312-0.966-0.756-1.278-1.332c-0.312-0.576-0.468-1.332-0.468-2.269v-10.26c0-0.398-0.323-0.72-0.72-0.72h-1.656
		c-0.397,0-0.72-0.322-0.72-0.72v-1.98c0-0.398,0.322-0.72,0.72-0.72h1.656c0.396,0,0.72-0.322,0.72-0.72v-4.14
		c0-0.398,0.322-0.72,0.72-0.72h3.673c0.397,0,0.72,0.322,0.72,0.72v4.14c0,0.398,0.322,0.72,0.72,0.72h2.304
		C287.075,84.43,287.397,84.751,287.397,85.149"/>
	<path fill="#FFFFFF" d="M293.842,98.578c0.768,0.744,1.872,1.115,3.312,1.115c1.031,0,1.92-0.258,2.663-0.773
		c0.595-0.412,1.006-0.843,1.232-1.293c0.113-0.224,0.363-0.345,0.614-0.345h2.987c0.519,0,0.862,0.534,0.664,1.012
		c-0.709,1.709-1.688,2.968-2.94,3.775c-1.488,0.961-3.289,1.44-5.4,1.44c-1.464,0-2.785-0.234-3.96-0.703
		c-1.176-0.467-2.172-1.133-2.988-1.998c-0.815-0.863-1.445-1.895-1.89-3.095c-0.445-1.2-0.666-2.521-0.666-3.96
		c0-1.392,0.228-2.688,0.684-3.888c0.456-1.2,1.104-2.238,1.944-3.114c0.839-0.876,1.841-1.567,3.005-2.07
		c1.164-0.504,2.455-0.756,3.871-0.756c1.584,0,2.963,0.305,4.141,0.918c1.175,0.612,2.142,1.434,2.897,2.465
		c0.755,1.033,1.301,2.209,1.637,3.529c0.282,1.106,0.412,2.255,0.391,3.445c-0.007,0.387-0.336,0.694-0.724,0.694h-11.947
		c-0.441,0-0.773,0.396-0.716,0.833C292.812,97.042,293.208,97.965,293.842,98.578 M299.62,88.786
		c-0.612-0.672-1.543-1.009-2.79-1.009c-0.816,0-1.494,0.139-2.034,0.414c-0.54,0.277-0.972,0.618-1.296,1.027
		c-0.324,0.408-0.553,0.84-0.686,1.296c-0.132,0.456-0.21,0.864-0.232,1.223h7.4c0.48,0,0.831-0.468,0.695-0.928
		C300.428,89.961,300.076,89.287,299.62,88.786"/>
	<path fill="#FFFFFF" d="M311.696,84.429c0.398,0,0.721,0.322,0.721,0.72v2.736h0.071c0.24-0.576,0.564-1.109,0.973-1.602
		c0.408-0.492,0.876-0.912,1.403-1.26c0.528-0.348,1.093-0.617,1.693-0.81c0.599-0.192,1.223-0.288,1.872-0.288
		c0.335,0,0.707,0.061,1.115,0.18v4.752c-0.24-0.048-0.527-0.09-0.863-0.126c-0.337-0.036-0.661-0.054-0.973-0.054
		c-0.937,0-1.729,0.156-2.376,0.468s-1.17,0.738-1.565,1.278c-0.396,0.54-0.679,1.17-0.847,1.89c-0.168,0.72-0.252,1.5-0.252,2.34
		v7.668c0,0.398-0.322,0.72-0.721,0.72h-3.671c-0.397,0-0.72-0.321-0.72-0.72V85.149c0-0.398,0.322-0.72,0.72-0.72H311.696z"/>
	<path fill="#FFFFFF" d="M325.269,97.498c0.398,0,0.721,0.322,0.721,0.72v4.824c0,0.814-0.149,1.564-0.449,2.25
		c-0.301,0.684-0.702,1.276-1.206,1.782c-0.504,0.504-1.099,0.918-1.782,1.24c-0.4,0.19-0.815,0.346-1.245,0.466
		c-0.466,0.13-0.933-0.212-0.933-0.695v-1.165c0-0.289,0.171-0.555,0.442-0.659c0.199-0.076,0.395-0.178,0.582-0.303
		c0.324-0.216,0.607-0.476,0.847-0.774c0.24-0.3,0.42-0.636,0.54-1.008s0.168-0.75,0.144-1.134h-1.871
		c-0.397,0-0.72-0.322-0.72-0.72v-4.104c0-0.398,0.322-0.72,0.72-0.72H325.269z"/>
	<path fill="#FFFFFF" d="M172.166,141.044c-0.331,0-0.619-0.226-0.699-0.546l-4.219-16.95h-0.072l-4.15,16.947
		c-0.079,0.321-0.368,0.549-0.7,0.549h-4.604c-0.327,0-0.613-0.22-0.696-0.536l-6.423-24.264c-0.121-0.457,0.224-0.904,0.696-0.904
		h4.145c0.334,0,0.625,0.23,0.701,0.557l3.939,16.939h0.072l4.326-16.954c0.081-0.319,0.368-0.542,0.697-0.542h4.17
		c0.33,0,0.619,0.225,0.698,0.547l4.256,17.165h0.073l4.08-17.159c0.077-0.324,0.367-0.553,0.7-0.553h4.036
		c0.474,0,0.819,0.449,0.696,0.907l-6.525,24.264c-0.085,0.313-0.37,0.533-0.696,0.533H172.166z"/>
	<path fill="#FFFFFF" d="M185.679,119.372v-3.312c0-0.397,0.322-0.72,0.72-0.72h19.621c0.396,0,0.72,0.322,0.72,0.72v3.312
		c0,0.397-0.323,0.72-0.72,0.72h-6.265c-0.397,0-0.721,0.322-0.721,0.72v19.512c0,0.398-0.321,0.721-0.72,0.721h-4.212
		c-0.398,0-0.72-0.322-0.72-0.721v-19.512c0-0.397-0.322-0.72-0.72-0.72h-6.264C186,120.092,185.679,119.77,185.679,119.372"/>
	<path fill="#FFFFFF" d="M227.583,116.06v3.312c0,0.397-0.322,0.72-0.72,0.72h-10.98c-0.398,0-0.72,0.322-0.72,0.72v4.5
		c0,0.398,0.321,0.72,0.72,0.72h9.325c0.396,0,0.72,0.323,0.72,0.721v2.951c0,0.398-0.323,0.721-0.72,0.721h-9.325
		c-0.398,0-0.72,0.322-0.72,0.72v9.18c0,0.398-0.322,0.721-0.721,0.721h-4.211c-0.397,0-0.72-0.322-0.72-0.721V116.06
		c0-0.397,0.322-0.72,0.72-0.72h16.632C227.261,115.34,227.583,115.662,227.583,116.06"/>
	<path fill="#FFFFFF" d="M323.243,120.057c0.419-1.08,1.008-2.017,1.763-2.809c0.756-0.792,1.668-1.409,2.737-1.854
		c1.067-0.444,2.261-0.666,3.582-0.666c1.703,0,3.125,0.233,4.265,0.702c1.141,0.467,2.059,1.049,2.754,1.745
		c0.697,0.697,1.194,1.446,1.494,2.25s0.451,1.554,0.451,2.25c0,1.152-0.151,2.1-0.451,2.845c-0.3,0.744-0.671,1.379-1.115,1.907
		s-0.936,0.979-1.476,1.35c-0.54,0.372-1.051,0.744-1.531,1.117c-0.479,0.372-0.905,0.797-1.277,1.277
		c-0.372,0.479-0.606,1.08-0.702,1.801v1.367h-4.139c-0.398,0-0.721-0.323-0.721-0.72v-0.9c0.072-1.032,0.27-1.896,0.593-2.592
		c0.325-0.695,0.702-1.29,1.135-1.782s0.888-0.918,1.368-1.278c0.479-0.359,0.924-0.719,1.331-1.079
		c0.408-0.36,0.739-0.757,0.991-1.188c0.251-0.432,0.365-0.972,0.341-1.619c0-1.104-0.269-1.92-0.809-2.449
		c-0.54-0.527-1.291-0.792-2.25-0.792c-0.649,0-1.206,0.126-1.675,0.378c-0.468,0.252-0.853,0.589-1.151,1.009
		c-0.301,0.42-0.522,0.912-0.666,1.476c-0.097,0.376-0.16,0.771-0.191,1.183c-0.028,0.364-0.351,0.636-0.716,0.636h-3.845
		c-0.411,0-0.752-0.346-0.719-0.756C322.696,121.858,322.905,120.922,323.243,120.057 M334.024,136.22v4.104
		c0,0.397-0.322,0.72-0.721,0.72h-4.211c-0.397,0-0.72-0.322-0.72-0.72v-4.104c0-0.397,0.322-0.72,0.72-0.72h4.211
		C333.702,135.5,334.024,135.822,334.024,136.22"/>
	
		<line fill="#FFFFFF" stroke="#FFFFFF" stroke-width="4" stroke-linecap="round" stroke-miterlimit="10" x1="227.55" y1="142.962" x2="322.8" y2="142.962"/>
	<path fill="#FFFFFF" d="M354.318,63.256v97.082H135.91v-34.014l-30.485-27.727h30.485V63.256H354.318 M354.318,59.256H135.91
		c-2.209,0-4,1.791-4,4v31.342h-26.485c-1.652,0-3.134,1.016-3.73,2.557c-0.596,1.541-0.183,3.29,1.039,4.401l29.176,26.536v32.245
		c0,2.209,1.791,4,4,4h218.408c2.209,0,4-1.791,4-4V63.256C358.318,61.047,356.527,59.256,354.318,59.256"/>
</g>
</svg>
